<?xml version="1.0" standalone="no"?>
<!DOCTYPE svg PUBLIC "-//W3C//DTD SVG 20010904//EN"
 "http://www.w3.org/TR/2001/REC-SVG-20010904/DTD/svg10.dtd">
<svg version="1.0" xmlns="http://www.w3.org/2000/svg"
 width="396.000000pt" height="219.000000pt" viewBox="0 0 396.000000 219.000000"
 preserveAspectRatio="xMidYMid meet">

<g transform="translate(0.000000,219.000000) scale(0.100000,-0.100000)"
fill="#000000" stroke="none">
<path d="M545 1723 c-14 -21 -19 -61 -26 -197 -4 -94 -8 -172 -8 -173 -2 -7
-177 12 -179 19 -2 4 -10 8 -18 8 -8 0 -14 4 -14 9 0 5 -13 11 -30 15 -21 4
-30 11 -30 25 0 20 -25 31 -75 31 -40 0 -95 -49 -95 -84 0 -15 -6 -26 -14 -26
-17 0 -26 -70 -26 -206 0 -119 7 -164 26 -164 8 0 14 -11 14 -25 0 -14 7 -28
15 -31 8 -3 17 -14 20 -23 3 -11 22 -22 50 -28 64 -14 126 3 168 48 54 59 77
92 77 111 0 10 5 18 10 18 6 0 10 12 10 28 0 58 8 68 49 64 l39 -4 -6 -65 c-3
-41 -1 -67 6 -72 7 -4 11 -65 12 -171 2 -173 11 -252 29 -258 6 -2 11 -10 11
-17 0 -17 59 -30 89 -20 12 3 26 15 32 27 7 13 11 145 11 391 0 205 3 366 5
360 3 -7 13 -13 24 -13 17 0 19 -8 19 -89 0 -59 -4 -91 -12 -93 -7 -3 -13 -37
-16 -92 -4 -79 -3 -89 17 -107 11 -11 21 -23 21 -28 0 -16 68 -29 112 -20 24
4 90 8 148 9 104 1 140 11 140 39 0 6 4 11 9 11 5 0 11 -59 13 -132 2 -94 7
-133 16 -136 7 -2 12 -21 12 -44 0 -94 107 -107 135 -17 5 13 14 29 22 34 12
9 14 39 9 170 -3 88 -8 201 -12 250 -4 50 -8 143 -8 209 -1 106 1 120 18 130
14 8 20 8 23 -1 2 -7 20 -15 38 -19 19 -3 39 -12 46 -20 6 -8 18 -14 25 -14 8
0 14 -8 14 -19 0 -27 -21 -81 -31 -81 -5 0 -9 -13 -9 -29 0 -16 -7 -36 -15
-45 -8 -8 -15 -26 -15 -39 0 -15 -9 -31 -24 -40 -28 -19 -40 -70 -30 -134 6
-44 17 -60 68 -100 21 -18 56 -16 56 2 0 8 4 15 10 15 10 0 60 98 60 117 0 6
7 16 15 23 8 7 15 23 15 36 0 13 5 24 10 24 6 0 10 14 10 31 0 17 7 37 15 45
8 9 15 28 15 44 0 16 5 32 10 35 6 3 10 17 10 31 0 14 5 35 11 47 15 27 13
172 -3 207 -15 35 -80 65 -137 63 -26 -1 -56 4 -68 13 -33 21 -72 17 -94 -8
l-18 -23 -1 38 c0 20 -4 37 -8 37 -5 0 -15 12 -23 28 -18 35 -39 51 -65 52
-22 0 -54 -28 -54 -48 0 -7 -4 -12 -9 -12 -4 0 -11 -59 -15 -130 -4 -72 -11
-142 -16 -156 -6 -14 -10 -81 -10 -149 l0 -124 -146 2 c-81 1 -141 3 -135 5 6
2 11 21 11 41 0 21 3 58 6 83 l6 44 64 -4 c60 -4 65 -3 94 26 35 36 39 72 13
132 -18 40 -18 40 -71 40 -29 0 -63 5 -75 12 -29 16 -217 21 -234 6 -11 -9
-13 11 -11 121 3 151 4 151 -78 151 -45 0 -54 -3 -69 -27z m125 -18 c6 -16 5
-65 -3 -137 -14 -139 -13 -228 3 -267 9 -22 9 -51 2 -113 -9 -83 -7 -434 3
-517 5 -42 -14 -103 -37 -117 -19 -12 -54 6 -70 38 -21 40 -26 102 -30 370
l-3 208 -57 0 c-32 0 -61 0 -65 0 -5 0 -11 -24 -14 -54 -16 -143 -159 -264
-252 -215 -26 14 -56 49 -57 66 0 6 -8 19 -18 29 -14 14 -18 40 -20 133 -4
104 -1 123 22 190 33 95 58 123 105 119 28 -2 36 -8 41 -28 3 -14 12 -25 20
-26 24 0 65 -20 79 -38 10 -12 32 -16 92 -16 43 0 81 -4 84 -10 9 -15 48 -12
42 3 -10 27 10 352 24 379 12 24 20 28 57 28 36 0 44 -4 52 -25z m630 -38 c38
-31 40 -50 28 -224 -9 -128 -9 -223 0 -398 14 -270 15 -369 4 -393 -5 -9 -15
-30 -23 -46 -8 -16 -22 -34 -31 -40 -24 -14 -58 18 -58 56 0 16 -7 45 -15 65
-12 29 -15 90 -15 324 0 171 4 299 10 315 9 24 16 108 19 246 1 34 8 54 27 77
29 34 33 36 54 18z m175 -107 c3 -5 36 -10 73 -10 56 0 72 -4 97 -24 28 -22
30 -29 33 -102 3 -60 -2 -95 -17 -143 -12 -35 -21 -72 -21 -82 0 -10 -4 -20
-9 -23 -5 -4 -17 -32 -27 -64 -9 -31 -24 -70 -32 -87 -8 -16 -19 -38 -23 -47
-5 -10 -9 -24 -9 -32 0 -8 -11 -28 -25 -44 -48 -58 -106 -13 -109 84 -1 41 4
57 20 76 21 22 43 69 80 171 9 26 21 50 25 53 5 3 9 25 9 48 l0 43 -52 7 c-65
8 -113 32 -127 63 -15 33 -15 35 19 81 24 33 37 42 59 42 17 0 33 -4 36 -10z
m-543 -111 c9 -5 36 -9 60 -9 52 0 78 -24 85 -80 5 -32 1 -40 -23 -59 -26 -21
-36 -23 -96 -17 l-66 6 -8 -53 c-4 -28 -8 -63 -9 -77 -2 -14 -6 -42 -10 -63
l-8 -39 49 9 c65 11 224 5 241 -9 20 -16 15 -75 -9 -112 l-23 -34 -105 -5
c-103 -4 -180 -13 -188 -22 -9 -8 -60 28 -72 50 -8 15 -10 47 -6 96 4 41 9
119 12 175 l5 101 -40 26 c-50 33 -54 67 -15 108 26 27 28 27 118 22 50 -3 99
-10 108 -14z"/>
<path d="M201 1214 c-28 -23 -31 -31 -31 -84 0 -48 3 -60 19 -65 25 -8 68 10
80 34 16 29 13 93 -5 119 -19 28 -26 28 -63 -4z m47 -61 c-3 -55 -4 -58 -30
-61 -26 -3 -28 -1 -28 35 0 40 25 83 48 83 10 0 12 -15 10 -57z"/>
<path d="M2630 1720 c0 -6 -38 -10 -95 -10 -57 0 -95 -4 -95 -10 0 -6 -20 -15
-45 -22 l-45 -12 0 -73 0 -73 45 -20 c33 -15 56 -19 87 -14 37 4 41 3 27 -8
-9 -7 -19 -25 -23 -40 -3 -16 -11 -28 -16 -28 -6 0 -10 -5 -10 -10 0 -6 -10
-27 -23 -48 -42 -67 -61 -131 -48 -159 7 -14 10 -26 9 -27 -18 -11 -63 -26
-76 -26 -9 0 -32 -13 -49 -29 -29 -25 -33 -35 -33 -77 1 -71 18 -89 87 -89 36
0 58 4 61 13 2 6 15 12 28 12 20 0 24 -5 24 -29 0 -23 -6 -31 -30 -40 -49 -17
-61 -35 -58 -88 3 -44 5 -48 35 -57 35 -9 54 -43 33 -56 -8 -5 -13 -35 -13
-88 0 -62 4 -85 19 -106 11 -14 22 -26 27 -26 4 0 16 -9 27 -20 17 -17 33 -20
96 -20 77 0 154 16 154 32 0 4 6 8 13 8 7 0 19 9 27 20 8 11 20 20 27 20 30 0
28 176 -2 210 -19 21 -19 30 0 30 8 0 15 7 15 15 0 8 5 15 10 15 14 0 12 51
-2 83 -7 15 -21 27 -30 27 -9 0 -20 5 -23 10 -3 6 -24 10 -46 10 -32 0 -39 3
-39 20 0 14 7 20 24 20 13 0 26 4 28 9 2 4 27 10 56 13 l52 5 0 -33 c0 -19 7
-42 15 -52 63 -70 87 -92 104 -92 11 0 21 -6 24 -12 2 -9 26 -13 76 -12 60 1
74 5 90 23 10 11 24 21 30 21 6 0 16 10 21 23 6 14 9 -35 9 -145 1 -93 5 -168
9 -168 4 0 16 -14 25 -30 10 -17 27 -30 38 -30 10 0 19 -4 19 -10 0 -5 7 -10
15 -10 8 0 15 5 15 10 0 6 7 10 15 10 8 0 15 7 15 15 0 8 5 15 10 15 6 0 10 9
10 20 0 11 5 20 10 20 6 0 10 29 10 68 0 38 3 103 6 145 l7 77 38 0 c22 0 39
5 39 10 0 6 14 10 30 10 17 0 30 -4 30 -10 0 -25 47 -6 77 31 l32 40 15 -28
c8 -16 20 -40 27 -55 6 -16 17 -28 25 -28 8 0 14 -4 14 -10 0 -5 7 -10 16 -10
14 0 14 -3 4 -15 -7 -8 -17 -15 -23 -15 -6 0 -23 -14 -39 -32 -54 -61 -29
-185 45 -218 35 -15 75 -1 118 42 25 25 29 37 29 82 0 52 -19 107 -49 136 -13
13 -13 15 1 18 33 6 33 135 -1 173 -35 38 -41 49 -41 69 0 11 4 20 9 20 5 0
15 16 21 35 6 19 16 35 21 35 5 0 9 9 9 19 0 10 7 21 15 25 8 3 15 17 15 31 0
14 6 25 14 25 9 0 15 18 20 53 14 116 3 237 -20 237 -8 0 -14 4 -14 8 0 5 -24
19 -52 31 -74 32 -159 27 -192 -12 -13 -15 -28 -27 -35 -27 -6 0 -11 -4 -11
-10 0 -5 -6 -10 -14 -10 -17 0 -26 -22 -26 -63 0 -47 11 -77 26 -77 8 0 14 -7
14 -15 0 -11 11 -15 41 -15 38 0 69 17 69 38 0 9 51 24 58 18 6 -7 -39 -122
-52 -132 -9 -6 -16 -23 -16 -37 0 -14 -7 -32 -15 -41 -8 -8 -15 -21 -15 -29 0
-9 -5 -17 -10 -19 -6 -2 -13 -26 -16 -54 l-6 -51 -46 23 c-26 13 -72 26 -102
30 -55 6 -56 7 -52 35 2 16 8 29 12 29 5 0 9 60 9 133 1 72 4 146 7 163 6 35
-12 114 -26 114 -6 0 -10 7 -10 16 0 41 -87 62 -97 24 -3 -11 -11 -20 -18 -20
-9 0 -16 -22 -20 -67 -3 -38 -11 -81 -16 -97 -5 -16 -9 -55 -9 -87 0 -58 0
-59 -28 -59 -20 0 -33 7 -42 25 -21 39 -95 55 -178 39 -34 -7 -102 -64 -102
-85 0 -8 -9 -20 -19 -26 -11 -7 -21 -21 -23 -32 -3 -18 -5 -18 -40 -3 -45 20
-46 27 -13 54 22 17 25 27 25 84 0 52 -3 66 -17 71 -10 4 -25 14 -33 23 -8 10
-24 20 -35 24 -23 7 -51 59 -35 64 5 2 10 14 10 27 0 13 5 27 10 30 12 8 13
125 1 125 -5 0 -11 9 -14 20 -3 14 -14 20 -31 20 -14 0 -26 5 -26 10 0 6 -11
10 -25 10 -14 0 -25 -4 -25 -10z m88 -56 c29 -33 28 -73 -4 -141 -31 -65 -24
-90 35 -119 58 -28 75 -58 72 -126 -1 -39 -39 -62 -76 -48 -15 6 -29 9 -30 8
-1 -2 -5 -23 -9 -46 l-7 -44 41 7 c61 10 100 -2 112 -36 13 -37 23 -37 37 3
36 104 120 178 201 178 41 0 48 -4 97 -57 29 -31 53 -63 53 -70 0 -8 5 -11 10
-8 6 3 10 -4 10 -16 0 -14 4 -19 9 -14 5 6 14 62 20 125 21 217 27 256 47 283
30 42 59 35 88 -22 15 -29 17 -54 13 -180 -3 -80 -10 -175 -16 -211 -5 -36 -6
-68 -2 -72 4 -4 29 -11 56 -14 80 -10 134 -33 151 -66 14 -27 13 -32 -5 -62
-21 -33 -21 -33 -117 -39 -53 -3 -100 -9 -105 -14 -4 -4 -12 -72 -17 -149 -10
-140 -22 -185 -56 -213 -20 -17 -48 -1 -75 43 -19 29 -21 49 -21 162 1 74 7
157 15 194 14 63 21 209 9 198 -3 -3 -10 -37 -15 -74 -13 -93 -56 -164 -120
-198 -25 -14 -56 -26 -68 -26 -36 0 -116 47 -145 85 -26 33 -31 53 -35 138 -1
16 -3 16 -29 -3 -26 -19 -49 -22 -248 -30 -120 -5 -234 -12 -252 -15 -75 -16
-111 60 -53 113 34 32 130 65 157 55 14 -4 12 0 -6 14 -21 18 -25 29 -23 73 2
40 11 65 40 111 21 33 48 79 60 101 11 22 26 45 32 51 21 21 11 27 -36 21 -27
-3 -51 -8 -55 -10 -10 -6 -53 12 -71 31 -20 20 -23 98 -4 112 17 14 59 23 156
33 46 5 86 12 90 15 12 13 67 -6 89 -31z m1108 -133 c22 -10 51 -31 63 -47 21
-26 23 -37 19 -119 -2 -49 -9 -99 -15 -110 -7 -11 -18 -33 -26 -50 -22 -48
-78 -149 -88 -159 -15 -16 -10 -41 11 -64 11 -11 29 -40 41 -62 18 -34 20 -49
13 -78 -7 -30 -14 -38 -37 -40 -30 -4 -72 24 -93 61 -72 126 -73 169 -8 294
26 48 51 92 55 98 5 5 9 24 9 41 0 18 5 36 10 39 14 9 12 52 -2 58 -28 10 -80
-6 -95 -29 -23 -35 -57 -31 -82 10 -12 18 -21 41 -21 50 0 9 26 41 58 71 52
50 61 55 102 55 25 0 63 -9 86 -19z m-1219 -572 c15 -5 39 -21 53 -33 14 -13
41 -26 59 -30 56 -10 81 -32 81 -69 0 -39 -15 -57 -46 -57 -35 0 -38 -18 -5
-34 34 -18 51 -60 51 -124 0 -40 -5 -50 -40 -83 -22 -22 -52 -42 -65 -45 -14
-3 -25 -10 -25 -15 0 -5 -36 -9 -80 -9 l-79 0 -41 42 c-30 32 -40 51 -41 78
-3 84 12 124 58 158 l27 20 -57 7 c-60 8 -87 24 -87 53 0 29 29 61 63 70 25 6
33 15 37 37 7 42 73 58 137 34z m1225 -216 c36 -44 48 -106 27 -146 -23 -44
-52 -67 -85 -67 -27 0 -38 7 -59 37 -42 63 -29 127 34 170 41 28 63 29 83 6z"/>
<path d="M2591 1308 c-8 -13 -28 -49 -44 -80 -16 -32 -38 -65 -50 -73 -21 -14
-20 -15 20 -15 67 0 73 5 73 69 1 31 7 67 15 81 25 43 12 59 -14 18z m-21
-123 c0 -16 -6 -25 -15 -25 -18 0 -19 4 -3 30 16 26 18 25 18 -5z"/>
<path d="M3062 1143 c-30 -43 -47 -120 -33 -155 12 -32 29 -36 37 -10 4 9 12
31 20 49 15 33 17 96 5 127 -7 17 -9 16 -29 -11z m4 -90 c-14 -26 -15 -26 -16
-6 0 12 6 35 13 50 11 25 12 26 15 6 2 -12 -4 -34 -12 -50z"/>
<path d="M2576 635 c-36 -33 -29 -49 22 -53 35 -3 43 1 58 23 16 24 16 26 -2
40 -28 21 -48 18 -78 -10z m60 -24 c-4 -6 -21 -11 -37 -11 -33 0 -31 16 5 30
23 9 42 -2 32 -19z"/>
<path d="M1808 1693 c-40 -49 -42 -68 -45 -413 -3 -339 -7 -420 -23 -420 -13
0 0 -147 18 -212 17 -61 23 -65 91 -59 26 2 51 23 51 41 0 6 7 19 16 27 13 13
15 35 13 117 -2 56 -2 140 -1 189 l2 87 59 -2 c56 -3 62 -1 95 31 32 31 36 40
36 88 0 45 -4 58 -26 80 -21 21 -38 27 -95 31 l-69 5 0 189 c0 178 -1 190 -19
195 -11 3 -21 13 -24 24 -7 25 -58 26 -79 2z m77 -35 l25 -22 0 -188 0 -188
55 0 c90 0 135 -35 135 -105 0 -13 -15 -38 -35 -58 -34 -34 -36 -35 -97 -30
l-63 5 -1 -88 c0 -49 -4 -112 -8 -140 -5 -34 -4 -54 3 -59 13 -7 15 -105 2
-105 -5 0 -14 -12 -20 -28 -6 -15 -21 -33 -32 -40 -29 -18 -64 6 -73 50 -10
43 -11 173 -2 218 4 19 8 181 10 360 4 339 8 393 34 423 20 23 37 22 67 -5z"/>
</g>
</svg>
